<svg height="294pt" viewBox="0.00 0.00 252.00 294.00" width="252pt" xmlns="http://www.w3.org/2000/svg" xmlns:xlink="http://www.w3.org/1999/xlink">
<g class="graph" id="graph0" transform="scale(1 1) rotate(0) translate(4 290)">
<title>G</title>
<polygon fill="#ffffff" points="-4,4 -4,-290 248,-290 248,4 -4,4" stroke="transparent"/>
<!-- 140692379161208 -->
<g class="node" id="node1">
<title>140692379161208</title>
<polygon fill="none" points="0,-166.5 0,-212.5 244,-212.5 244,-166.5 0,-166.5" stroke="#000000"/>
<text fill="#000000" font-family="Times,serif" font-size="14.00" text-anchor="middle" x="42" y="-185.8">Embedding</text>
<polyline fill="none" points="84,-166.5 84,-212.5 " stroke="#000000"/>
<text fill="#000000" font-family="Times,serif" font-size="14.00" text-anchor="middle" x="113" y="-197.3">input:</text>
<polyline fill="none" points="84,-189.5 142,-189.5 " stroke="#000000"/>
<text fill="#000000" font-family="Times,serif" font-size="14.00" text-anchor="middle" x="113" y="-174.3">output:</text>
<polyline fill="none" points="142,-166.5 142,-212.5 " stroke="#000000"/>
<text fill="#000000" font-family="Times,serif" font-size="14.00" text-anchor="middle" x="193" y="-197.3">(None, 4)</text>
<polyline fill="none" points="142,-189.5 244,-189.5 " stroke="#000000"/>
<text fill="#000000" font-family="Times,serif" font-size="14.00" text-anchor="middle" x="193" y="-174.3">(None, 4, 100)</text>
</g>
<!-- 140692379161432 -->
<g class="node" id="node2">
<title>140692379161432</title>
<polygon fill="none" points="10,-83.5 10,-129.5 234,-129.5 234,-83.5 10,-83.5" stroke="#000000"/>
<text fill="#000000" font-family="Times,serif" font-size="14.00" text-anchor="middle" x="42" y="-102.8">Lambda</text>
<polyline fill="none" points="74,-83.5 74,-129.5 " stroke="#000000"/>
<text fill="#000000" font-family="Times,serif" font-size="14.00" text-anchor="middle" x="103" y="-114.3">input:</text>
<polyline fill="none" points="74,-106.5 132,-106.5 " stroke="#000000"/>
<text fill="#000000" font-family="Times,serif" font-size="14.00" text-anchor="middle" x="103" y="-91.3">output:</text>
<polyline fill="none" points="132,-83.5 132,-129.5 " stroke="#000000"/>
<text fill="#000000" font-family="Times,serif" font-size="14.00" text-anchor="middle" x="183" y="-114.3">(None, 4, 100)</text>
<polyline fill="none" points="132,-106.5 234,-106.5 " stroke="#000000"/>
<text fill="#000000" font-family="Times,serif" font-size="14.00" text-anchor="middle" x="183" y="-91.3">(None, 100)</text>
</g>
<!-- 140692379161208&#45;&gt;140692379161432 -->
<g class="edge" id="edge2">
<title>140692379161208-&gt;140692379161432</title>
<path d="M122,-166.3799C122,-158.1745 122,-148.7679 122,-139.8786" fill="none" stroke="#000000"/>
<polygon fill="#000000" points="125.5001,-139.784 122,-129.784 118.5001,-139.784 125.5001,-139.784" stroke="#000000"/>
</g>
<!-- 140692996455280 -->
<g class="node" id="node3">
<title>140692996455280</title>
<polygon fill="none" points="16,-.5 16,-46.5 228,-46.5 228,-.5 16,-.5" stroke="#000000"/>
<text fill="#000000" font-family="Times,serif" font-size="14.00" text-anchor="middle" x="42" y="-19.8">Dense</text>
<polyline fill="none" points="68,-.5 68,-46.5 " stroke="#000000"/>
<text fill="#000000" font-family="Times,serif" font-size="14.00" text-anchor="middle" x="97" y="-31.3">input:</text>
<polyline fill="none" points="68,-23.5 126,-23.5 " stroke="#000000"/>
<text fill="#000000" font-family="Times,serif" font-size="14.00" text-anchor="middle" x="97" y="-8.3">output:</text>
<polyline fill="none" points="126,-.5 126,-46.5 " stroke="#000000"/>
<text fill="#000000" font-family="Times,serif" font-size="14.00" text-anchor="middle" x="177" y="-31.3">(None, 100)</text>
<polyline fill="none" points="126,-23.5 228,-23.5 " stroke="#000000"/>
<text fill="#000000" font-family="Times,serif" font-size="14.00" text-anchor="middle" x="177" y="-8.3">(None, 12746)</text>
</g>
<!-- 140692379161432&#45;&gt;140692996455280 -->
<g class="edge" id="edge3">
<title>140692379161432-&gt;140692996455280</title>
<path d="M122,-83.3799C122,-75.1745 122,-65.7679 122,-56.8786" fill="none" stroke="#000000"/>
<polygon fill="#000000" points="125.5001,-56.784 122,-46.784 118.5001,-56.784 125.5001,-56.784" stroke="#000000"/>
</g>
<!-- 140692379162048 -->
<g class="node" id="node4">
<title>140692379162048</title>
<polygon fill="none" points="57.5,-249.5 57.5,-285.5 186.5,-285.5 186.5,-249.5 57.5,-249.5" stroke="#000000"/>
<text fill="#000000" font-family="Times,serif" font-size="14.00" text-anchor="middle" x="122" y="-263.8">140692379162048</text>
</g>
<!-- 140692379162048&#45;&gt;140692379161208 -->
<g class="edge" id="edge1">
<title>140692379162048-&gt;140692379161208</title>
<path d="M122,-249.4092C122,-241.4308 122,-231.795 122,-222.606" fill="none" stroke="#000000"/>
<polygon fill="#000000" points="125.5001,-222.5333 122,-212.5333 118.5001,-222.5334 125.5001,-222.5333" stroke="#000000"/>
</g>
</g>
</svg>